<svg width="940" height="300" xmlns="http://www.w3.org/2000/svg" xmlns:xlink= "http://www.w3.org/1999/xlink">
<ellipse cx="624.924" cy="50" rx="10" ry="10" stroke="black" fill="none" stroke-width="1" />
<path d="M147.708,90 C147.708,75 624.924,75 624.924,60" stroke="black" fill="none" stroke-width="1" />
<ellipse cx="147.708" cy="100" rx="10" ry="10" stroke="black" fill="none" stroke-width="1" />
<path d="M50,140 C50,125 147.708,125 147.708,110" stroke="black" fill="none" stroke-width="1" />
<ellipse cx="50" cy="150" rx="10" ry="10" stroke="black" fill="none" stroke-width="1" />
<path d="M85,140 C85,125 147.708,125 147.708,110" stroke="black" fill="none" stroke-width="1" />
<ellipse cx="85" cy="150" rx="10" ry="10" stroke="black" fill="none" stroke-width="1" />
<path d="M120,140 C120,125 147.708,125 147.708,110" stroke="black" fill="none" stroke-width="1" />
<ellipse cx="120" cy="150" rx="10" ry="10" stroke="black" fill="none" stroke-width="1" />
<path d="M155,140 C155,125 147.708,125 147.708,110" stroke="black" fill="none" stroke-width="1" />
<ellipse cx="155" cy="150" rx="10" ry="10" stroke="black" fill="none" stroke-width="1" />
<path d="M190,140 C190,125 147.708,125 147.708,110" stroke="black" fill="none" stroke-width="1" />
<ellipse cx="190" cy="150" rx="10" ry="10" stroke="black" fill="none" stroke-width="1" />
<path d="M286.25,140 C286.25,125 147.708,125 147.708,110" stroke="black" fill="none" stroke-width="1" />
<ellipse cx="286.25" cy="150" rx="10" ry="10" stroke="black" fill="none" stroke-width="1" />
<path d="M225,190 C225,175 286.25,175 286.25,160" stroke="black" fill="none" stroke-width="1" />
<ellipse cx="225" cy="200" rx="10" ry="10" stroke="black" fill="none" stroke-width="1" />
<path d="M260,190 C260,175 286.25,175 286.25,160" stroke="black" fill="none" stroke-width="1" />
<ellipse cx="260" cy="200" rx="10" ry="10" stroke="black" fill="none" stroke-width="1" />
<path d="M295,190 C295,175 286.25,175 286.25,160" stroke="black" fill="none" stroke-width="1" />
<ellipse cx="295" cy="200" rx="10" ry="10" stroke="black" fill="none" stroke-width="1" />
<path d="M365,190 C365,175 286.25,175 286.25,160" stroke="black" fill="none" stroke-width="1" />
<ellipse cx="365" cy="200" rx="10" ry="10" stroke="black" fill="none" stroke-width="1" />
<path d="M330,240 C330,225 365,225 365,210" stroke="black" fill="none" stroke-width="1" />
<ellipse cx="330" cy="250" rx="10" ry="10" stroke="black" fill="none" stroke-width="1" />
<path d="M365,240 C365,225 365,225 365,210" stroke="black" fill="none" stroke-width="1" />
<ellipse cx="365" cy="250" rx="10" ry="10" stroke="black" fill="none" stroke-width="1" />
<path d="M400,240 C400,225 365,225 365,210" stroke="black" fill="none" stroke-width="1" />
<ellipse cx="400" cy="250" rx="10" ry="10" stroke="black" fill="none" stroke-width="1" />
<path d="M435,90 C435,75 624.924,75 624.924,60" stroke="black" fill="none" stroke-width="1" />
<ellipse cx="435" cy="100" rx="10" ry="10" stroke="black" fill="none" stroke-width="1" />
<path d="M654.333,90 C654.333,75 624.924,75 624.924,60" stroke="black" fill="none" stroke-width="1" />
<ellipse cx="654.333" cy="100" rx="10" ry="10" stroke="black" fill="none" stroke-width="1" />
<path d="M534.167,140 C534.167,125 654.333,125 654.333,110" stroke="black" fill="none" stroke-width="1" />
<ellipse cx="534.167" cy="150" rx="10" ry="10" stroke="black" fill="none" stroke-width="1" />
<path d="M487.5,190 C487.5,175 534.167,175 534.167,160" stroke="black" fill="none" stroke-width="1" />
<ellipse cx="487.5" cy="200" rx="10" ry="10" stroke="black" fill="none" stroke-width="1" />
<path d="M470,240 C470,225 487.5,225 487.5,210" stroke="black" fill="none" stroke-width="1" />
<ellipse cx="470" cy="250" rx="10" ry="10" stroke="black" fill="none" stroke-width="1" />
<path d="M505,240 C505,225 487.5,225 487.5,210" stroke="black" fill="none" stroke-width="1" />
<ellipse cx="505" cy="250" rx="10" ry="10" stroke="black" fill="none" stroke-width="1" />
<path d="M540,190 C540,175 534.167,175 534.167,160" stroke="black" fill="none" stroke-width="1" />
<ellipse cx="540" cy="200" rx="10" ry="10" stroke="black" fill="none" stroke-width="1" />
<path d="M575,190 C575,175 534.167,175 534.167,160" stroke="black" fill="none" stroke-width="1" />
<ellipse cx="575" cy="200" rx="10" ry="10" stroke="black" fill="none" stroke-width="1" />
<path d="M610,140 C610,125 654.333,125 654.333,110" stroke="black" fill="none" stroke-width="1" />
<ellipse cx="610" cy="150" rx="10" ry="10" stroke="black" fill="none" stroke-width="1" />
<path d="M662.5,140 C662.5,125 654.333,125 654.333,110" stroke="black" fill="none" stroke-width="1" />
<ellipse cx="662.5" cy="150" rx="10" ry="10" stroke="black" fill="none" stroke-width="1" />
<path d="M645,190 C645,175 662.5,175 662.5,160" stroke="black" fill="none" stroke-width="1" />
<ellipse cx="645" cy="200" rx="10" ry="10" stroke="black" fill="none" stroke-width="1" />
<path d="M680,190 C680,175 662.5,175 662.5,160" stroke="black" fill="none" stroke-width="1" />
<ellipse cx="680" cy="200" rx="10" ry="10" stroke="black" fill="none" stroke-width="1" />
<path d="M715,140 C715,125 654.333,125 654.333,110" stroke="black" fill="none" stroke-width="1" />
<ellipse cx="715" cy="150" rx="10" ry="10" stroke="black" fill="none" stroke-width="1" />
<path d="M750,140 C750,125 654.333,125 654.333,110" stroke="black" fill="none" stroke-width="1" />
<ellipse cx="750" cy="150" rx="10" ry="10" stroke="black" fill="none" stroke-width="1" />
<path d="M785,90 C785,75 624.924,75 624.924,60" stroke="black" fill="none" stroke-width="1" />
<ellipse cx="785" cy="100" rx="10" ry="10" stroke="black" fill="none" stroke-width="1" />
<path d="M837.5,90 C837.5,75 624.924,75 624.924,60" stroke="black" fill="none" stroke-width="1" />
<ellipse cx="837.5" cy="100" rx="10" ry="10" stroke="black" fill="none" stroke-width="1" />
<path d="M820,140 C820,125 837.5,125 837.5,110" stroke="black" fill="none" stroke-width="1" />
<ellipse cx="820" cy="150" rx="10" ry="10" stroke="black" fill="none" stroke-width="1" />
<path d="M855,140 C855,125 837.5,125 837.5,110" stroke="black" fill="none" stroke-width="1" />
<ellipse cx="855" cy="150" rx="10" ry="10" stroke="black" fill="none" stroke-width="1" />
<path d="M890,90 C890,75 624.924,75 624.924,60" stroke="black" fill="none" stroke-width="1" />
<ellipse cx="890" cy="100" rx="10" ry="10" stroke="black" fill="none" stroke-width="1" />
</svg>