<svg width="620" height="200" xmlns="http://www.w3.org/2000/svg" xmlns:xlink= "http://www.w3.org/1999/xlink">
<ellipse cx="288.182" cy="50" rx="10" ry="10" stroke="black" fill="none" stroke-width="1" />
<path d="M50,90 C50,70 288.182,80 288.182,60" stroke="black" fill="none" stroke-width="1" />
<ellipse cx="50" cy="100" rx="10" ry="10" stroke="black" fill="none" stroke-width="1" />
<path d="M90,90 C90,70 288.182,80 288.182,60" stroke="black" fill="none" stroke-width="1" />
<ellipse cx="90" cy="100" rx="10" ry="10" stroke="black" fill="none" stroke-width="1" />
<path d="M130,90 C130,70 288.182,80 288.182,60" stroke="black" fill="none" stroke-width="1" />
<ellipse cx="130" cy="100" rx="10" ry="10" stroke="black" fill="none" stroke-width="1" />
<path d="M170,90 C170,70 288.182,80 288.182,60" stroke="black" fill="none" stroke-width="1" />
<ellipse cx="170" cy="100" rx="10" ry="10" stroke="black" fill="none" stroke-width="1" />
<path d="M210,90 C210,70 288.182,80 288.182,60" stroke="black" fill="none" stroke-width="1" />
<ellipse cx="210" cy="100" rx="10" ry="10" stroke="black" fill="none" stroke-width="1" />
<path d="M250,90 C250,70 288.182,80 288.182,60" stroke="black" fill="none" stroke-width="1" />
<ellipse cx="250" cy="100" rx="10" ry="10" stroke="black" fill="none" stroke-width="1" />
<path d="M290,90 C290,70 288.182,80 288.182,60" stroke="black" fill="none" stroke-width="1" />
<ellipse cx="290" cy="100" rx="10" ry="10" stroke="black" fill="none" stroke-width="1" />
<path d="M390,90 C390,70 288.182,80 288.182,60" stroke="black" fill="none" stroke-width="1" />
<ellipse cx="390" cy="100" rx="10" ry="10" stroke="black" fill="none" stroke-width="1" />
<path d="M330,140 C330,120 390,130 390,110" stroke="black" fill="none" stroke-width="1" />
<ellipse cx="330" cy="150" rx="10" ry="10" stroke="black" fill="none" stroke-width="1" />
<path d="M370,140 C370,120 390,130 390,110" stroke="black" fill="none" stroke-width="1" />
<ellipse cx="370" cy="150" rx="10" ry="10" stroke="black" fill="none" stroke-width="1" />
<path d="M410,140 C410,120 390,130 390,110" stroke="black" fill="none" stroke-width="1" />
<ellipse cx="410" cy="150" rx="10" ry="10" stroke="black" fill="none" stroke-width="1" />
<path d="M450,140 C450,120 390,130 390,110" stroke="black" fill="none" stroke-width="1" />
<ellipse cx="450" cy="150" rx="10" ry="10" stroke="black" fill="none" stroke-width="1" />
<path d="M490,90 C490,70 288.182,80 288.182,60" stroke="black" fill="none" stroke-width="1" />
<ellipse cx="490" cy="100" rx="10" ry="10" stroke="black" fill="none" stroke-width="1" />
<path d="M530,90 C530,70 288.182,80 288.182,60" stroke="black" fill="none" stroke-width="1" />
<ellipse cx="530" cy="100" rx="10" ry="10" stroke="black" fill="none" stroke-width="1" />
<path d="M570,90 C570,70 288.182,80 288.182,60" stroke="black" fill="none" stroke-width="1" />
<ellipse cx="570" cy="100" rx="10" ry="10" stroke="black" fill="none" stroke-width="1" />
</svg>