<svg width="800" height="500">
<ellipse cx="555.868" cy="70" rx="10" ry="10" stroke="black" fill="none" stroke-width="1" />
<path d="M167.708,110 C167.708,95 555.868,95 555.868,80" stroke="black" fill="none" stroke-width="1" />
<ellipse cx="167.708" cy="120" rx="10" ry="10" stroke="black" fill="none" stroke-width="1" />
<path d="M70,160 C70,145 167.708,145 167.708,130" stroke="black" fill="none" stroke-width="1" />
<ellipse cx="70" cy="170" rx="10" ry="10" stroke="black" fill="none" stroke-width="1" />
<path d="M105,160 C105,145 167.708,145 167.708,130" stroke="black" fill="none" stroke-width="1" />
<ellipse cx="105" cy="170" rx="10" ry="10" stroke="black" fill="none" stroke-width="1" />
<path d="M140,160 C140,145 167.708,145 167.708,130" stroke="black" fill="none" stroke-width="1" />
<ellipse cx="140" cy="170" rx="10" ry="10" stroke="black" fill="none" stroke-width="1" />
<path d="M175,160 C175,145 167.708,145 167.708,130" stroke="black" fill="none" stroke-width="1" />
<ellipse cx="175" cy="170" rx="10" ry="10" stroke="black" fill="none" stroke-width="1" />
<path d="M210,160 C210,145 167.708,145 167.708,130" stroke="black" fill="none" stroke-width="1" />
<ellipse cx="210" cy="170" rx="10" ry="10" stroke="black" fill="none" stroke-width="1" />
<path d="M306.25,160 C306.25,145 167.708,145 167.708,130" stroke="black" fill="none" stroke-width="1" />
<ellipse cx="306.25" cy="170" rx="10" ry="10" stroke="black" fill="none" stroke-width="1" />
<path d="M245,210 C245,195 306.25,195 306.25,180" stroke="black" fill="none" stroke-width="1" />
<ellipse cx="245" cy="220" rx="10" ry="10" stroke="black" fill="none" stroke-width="1" />
<path d="M280,210 C280,195 306.25,195 306.25,180" stroke="black" fill="none" stroke-width="1" />
<ellipse cx="280" cy="220" rx="10" ry="10" stroke="black" fill="none" stroke-width="1" />
<path d="M315,210 C315,195 306.25,195 306.25,180" stroke="black" fill="none" stroke-width="1" />
<ellipse cx="315" cy="220" rx="10" ry="10" stroke="black" fill="none" stroke-width="1" />
<path d="M385,210 C385,195 306.25,195 306.25,180" stroke="black" fill="none" stroke-width="1" />
<ellipse cx="385" cy="220" rx="10" ry="10" stroke="black" fill="none" stroke-width="1" />
<path d="M350,260 C350,245 385,245 385,230" stroke="black" fill="none" stroke-width="1" />
<ellipse cx="350" cy="270" rx="10" ry="10" stroke="black" fill="none" stroke-width="1" />
<path d="M385,260 C385,245 385,245 385,230" stroke="black" fill="none" stroke-width="1" />
<ellipse cx="385" cy="270" rx="10" ry="10" stroke="black" fill="none" stroke-width="1" />
<path d="M420,260 C420,245 385,245 385,230" stroke="black" fill="none" stroke-width="1" />
<ellipse cx="420" cy="270" rx="10" ry="10" stroke="black" fill="none" stroke-width="1" />
<path d="M455,110 C455,95 555.868,95 555.868,80" stroke="black" fill="none" stroke-width="1" />
<ellipse cx="455" cy="120" rx="10" ry="10" stroke="black" fill="none" stroke-width="1" />
<path d="M560,110 C560,95 555.868,95 555.868,80" stroke="black" fill="none" stroke-width="1" />
<ellipse cx="560" cy="120" rx="10" ry="10" stroke="black" fill="none" stroke-width="1" />
<path d="M490,160 C490,145 560,145 560,130" stroke="black" fill="none" stroke-width="1" />
<ellipse cx="490" cy="170" rx="10" ry="10" stroke="black" fill="none" stroke-width="1" />
<path d="M525,160 C525,145 560,145 560,130" stroke="black" fill="none" stroke-width="1" />
<ellipse cx="525" cy="170" rx="10" ry="10" stroke="black" fill="none" stroke-width="1" />
<path d="M560,160 C560,145 560,145 560,130" stroke="black" fill="none" stroke-width="1" />
<ellipse cx="560" cy="170" rx="10" ry="10" stroke="black" fill="none" stroke-width="1" />
<path d="M595,160 C595,145 560,145 560,130" stroke="black" fill="none" stroke-width="1" />
<ellipse cx="595" cy="170" rx="10" ry="10" stroke="black" fill="none" stroke-width="1" />
<path d="M630,160 C630,145 560,145 560,130" stroke="black" fill="none" stroke-width="1" />
<ellipse cx="630" cy="170" rx="10" ry="10" stroke="black" fill="none" stroke-width="1" />
<path d="M665,110 C665,95 555.868,95 555.868,80" stroke="black" fill="none" stroke-width="1" />
<ellipse cx="665" cy="120" rx="10" ry="10" stroke="black" fill="none" stroke-width="1" />
<path d="M717.5,110 C717.5,95 555.868,95 555.868,80" stroke="black" fill="none" stroke-width="1" />
<ellipse cx="717.5" cy="120" rx="10" ry="10" stroke="black" fill="none" stroke-width="1" />
<path d="M700,160 C700,145 717.5,145 717.5,130" stroke="black" fill="none" stroke-width="1" />
<ellipse cx="700" cy="170" rx="10" ry="10" stroke="black" fill="none" stroke-width="1" />
<path d="M735,160 C735,145 717.5,145 717.5,130" stroke="black" fill="none" stroke-width="1" />
<ellipse cx="735" cy="170" rx="10" ry="10" stroke="black" fill="none" stroke-width="1" />
<path d="M770,110 C770,95 555.868,95 555.868,80" stroke="black" fill="none" stroke-width="1" />
<ellipse cx="770" cy="120" rx="10" ry="10" stroke="black" fill="none" stroke-width="1" />
</svg>